<svg width="184" height="202" viewBox="0 0 184 202" fill="none" xmlns="http://www.w3.org/2000/svg">
<path d="M83.9 65V75.5H7.9V65H39.2V54.4H52.4V65H83.9ZM28.1 97.4C28.1 102.7 34.3 105.1 45.7 105.1C57.3 105.1 63.5 102.7 63.5 97.4C63.5 92.2 57.3 89.6 45.7 89.6C34.3 89.6 28.1 92.2 28.1 97.4ZM52.4 125.7H87.8V136.4H4.3V125.7H39.2V115.1C23.9 113.7 14.5 107.3 14.5 97.4C14.5 86.1 26.6 79.4 45.7 79.4C65 79.4 77 86.1 77 97.4C77 107.3 67.7 113.6 52.4 115.1V125.7ZM174.792 53.6V102.2H162.292V53.6H174.792ZM144.192 101.7V83.3H135.192V72.9H144.192V55H156.492V101.7H144.192ZM137.792 88.5L138.892 98.5C128.292 100.3 119.192 100.6 106.192 100.6H99.8922V58.6H134.492V68.8H112.392V74.5H131.292V84.1H112.392V90.4C121.892 90.3 129.292 89.8 137.792 88.5ZM125.392 135H177.692V144.9H112.392V120.5H161.792V115.6H112.192V105.6H174.792V129.7H125.392V135Z" fill="white"/>
<path d="M184 194H0V210H184V194Z" fill="#702AF3" mask="url(#path-1-inside-1_200_1542)"/>
</svg>
