<?xml version="1.0" standalone="no"?>
<!DOCTYPE svg PUBLIC "-//W3C//DTD SVG 20010904//EN"
 "http://www.w3.org/TR/2001/REC-SVG-20010904/DTD/svg10.dtd">
<svg version="1.0" xmlns="http://www.w3.org/2000/svg"
 width="716.000000pt" height="716.000000pt" viewBox="0 0 716.000000 716.000000"
 preserveAspectRatio="xMidYMid meet">
<metadata>
Created by potrace 1.14, written by Peter Selinger 2001-2017
</metadata>
<g transform="translate(0.000000,716.000000) scale(0.100000,-0.100000)"
fill="#000000" stroke="none">
<path d="M3428 6835 c-2 -1 -41 -5 -88 -9 -47 -3 -125 -14 -175 -22 -49 -9
-99 -18 -110 -19 -42 -6 -224 -56 -307 -84 -288 -98 -578 -262 -813 -460 -72
-62 -248 -243 -316 -326 -288 -355 -483 -828 -536 -1300 -16 -139 -9 -496 11
-599 102 -522 380 -998 867 -1485 80 -81 190 -184 260 -242 28 -24 57 -48 63
-54 133 -119 541 -412 579 -416 7 -1 325 -3 707 -4 510 -2 704 1 731 10 66 21
360 230 564 400 200 167 443 405 570 559 22 27 45 54 51 60 32 33 189 252 245
340 62 99 153 271 196 371 62 141 130 385 150 533 10 75 10 427 0 522 -77 738
-480 1406 -1092 1809 -55 36 -123 78 -150 93 -148 78 -187 97 -260 128 -185
76 -439 148 -592 166 -13 1 -41 5 -62 9 -22 4 -59 9 -83 11 -45 5 -406 13
-410 9z m397 -259 c176 -23 304 -50 442 -92 97 -29 92 -21 172 -236 80 -214
150 -510 177 -753 4 -33 8 -68 10 -78 24 -133 23 -859 -1 -987 -1 -8 -6 -53
-10 -100 -4 -47 -8 -92 -10 -100 -1 -8 -6 -44 -11 -80 -4 -36 -8 -67 -9 -70
-1 -3 -5 -32 -9 -65 -5 -33 -10 -69 -13 -80 -2 -11 -6 -31 -8 -45 -3 -23 -28
-168 -41 -235 -4 -24 -57 -271 -79 -370 -22 -98 -94 -365 -140 -515 -31 -102
-58 -192 -60 -200 -19 -70 -165 -481 -176 -495 -5 -7 -172 -11 -499 -10 l-492
0 -34 90 c-99 258 -284 858 -318 1030 -2 11 -13 58 -25 105 -44 184 -68 294
-96 448 -3 15 -7 36 -9 47 -2 11 -7 42 -10 68 -4 27 -9 58 -12 70 -2 12 -6 39
-9 62 -3 22 -8 51 -10 65 -2 14 -7 49 -10 79 -4 30 -8 61 -10 70 -5 27 -20
178 -30 286 -22 267 -22 652 0 880 13 126 17 159 41 305 30 181 77 368 133
530 41 121 96 250 106 250 3 0 56 15 118 34 153 46 314 79 452 92 39 3 71 7
73 9 5 5 358 -3 407 -9z m1079 -404 c153 -106 334 -278 457 -432 50 -63 149
-206 149 -216 0 -4 6 -15 14 -23 15 -17 136 -255 140 -275 1 -6 10 -29 20 -51
29 -67 85 -256 105 -355 39 -191 45 -257 46 -450 0 -220 -4 -265 -39 -411 -82
-345 -268 -681 -581 -1049 -64 -75 -355 -361 -451 -443 -125 -107 -384 -307
-398 -307 -2 0 17 64 44 143 155 459 278 921 356 1337 17 92 35 191 39 225 4
22 10 65 15 95 6 30 12 71 14 90 2 19 7 62 11 95 4 33 9 68 11 77 1 9 5 49 9
90 3 40 8 84 10 98 26 171 25 810 0 1030 -3 19 -7 58 -10 86 -3 29 -7 60 -9
70 -2 11 -6 40 -10 65 -26 182 -89 442 -140 588 -9 24 -16 47 -16 52 0 9 122
-64 214 -129z m-2494 42 c-46 -131 -137 -520 -125 -532 2 -2 0 -14 -5 -26 -4
-12 -11 -55 -15 -96 -4 -41 -8 -77 -10 -80 -2 -3 -6 -48 -10 -100 -3 -52 -8
-117 -10 -145 -6 -68 -6 -526 0 -600 2 -33 7 -96 10 -140 8 -109 16 -192 31
-317 2 -21 6 -57 9 -80 3 -24 7 -54 10 -68 3 -14 7 -44 10 -68 6 -58 34 -215
91 -506 13 -67 98 -424 119 -496 2 -8 15 -55 29 -105 13 -49 43 -151 66 -225
23 -74 43 -139 44 -145 2 -5 5 -17 9 -25 29 -79 88 -263 85 -265 -5 -5 -178
128 -319 245 -102 85 -407 381 -485 470 -347 403 -552 808 -612 1210 -4 25 -7
135 -6 245 0 224 16 356 65 538 16 62 31 119 33 127 12 51 87 231 133 324 172
343 415 623 728 838 80 54 138 89 143 84 1 -2 -7 -29 -18 -62z"/>
<path d="M3073 1306 c-49 -16 -97 -48 -136 -90 -73 -80 -78 -112 -78 -480 1
-292 2 -318 21 -369 25 -67 86 -131 160 -166 l55 -26 485 0 c476 0 486 1 532
22 73 33 123 79 154 141 l29 57 0 350 c0 335 -1 352 -21 395 -28 59 -88 120
-150 150 l-49 25 -480 2 c-369 1 -490 -1 -522 -11z m959 -253 c17 -15 18 -38
18 -308 0 -260 -2 -294 -17 -306 -24 -21 -867 -23 -900 -2 l-23 13 0 293 c0
160 4 297 8 303 4 6 14 14 22 17 8 3 208 6 444 6 386 1 431 -1 448 -16z"/>
</g>
</svg>
